<svg width="631" height="483" viewBox="0 0 631 483" fill="none" xmlns="http://www.w3.org/2000/svg">
<path d="M2.92375 481.5L315.5 2.91435L628.076 481.5H2.92375Z" fill="#EB5757" fill-opacity="0.8" stroke="black"/>
<path d="M60.924 392.5L315.5 2.91405L570.076 392.5H60.924Z" fill="#F2994A" fill-opacity="0.8" stroke="black"/>
<path d="M110.925 315.5L315.5 2.91306L520.075 315.5H110.925Z" fill="#6FCF97" stroke="black"/>
<path d="M164.926 232.5L315.5 2.91172L466.074 232.5H164.926Z" fill="#56CCF2" stroke="black"/>
<path d="M208.929 164.5L315.5 2.90817L422.071 164.5H208.929Z" fill="#9B51E0" stroke="black"/>
<path d="M252.93 97.5L315.5 2.90631L378.07 97.5H252.93Z" fill="#F2C94C" stroke="black"/>
<path d="M274.553 127.441H271.449V136H269.733V127.441H266.657V126.047H274.553V127.441ZM281.874 133.71L283.05 128.604H284.67L282.653 136H281.286L279.7 130.921L278.142 136H276.774L274.751 128.604H276.371L277.567 133.655L279.085 128.604H280.336L281.874 133.71ZM287.548 136H285.887V128.604H287.548V136ZM285.784 126.683C285.784 126.427 285.864 126.215 286.023 126.047C286.188 125.878 286.42 125.794 286.721 125.794C287.021 125.794 287.254 125.878 287.418 126.047C287.582 126.215 287.664 126.427 287.664 126.683C287.664 126.933 287.582 127.143 287.418 127.312C287.254 127.476 287.021 127.558 286.721 127.558C286.42 127.558 286.188 127.476 286.023 127.312C285.864 127.143 285.784 126.933 285.784 126.683ZM291.444 126.806V128.604H292.75V129.834H291.444V133.963C291.444 134.245 291.499 134.451 291.608 134.578C291.722 134.701 291.923 134.763 292.21 134.763C292.401 134.763 292.595 134.74 292.791 134.694V135.979C292.413 136.084 292.048 136.137 291.697 136.137C290.421 136.137 289.783 135.433 289.783 134.024V129.834H288.566V128.604H289.783V126.806H291.444ZM296.106 126.806V128.604H297.412V129.834H296.106V133.963C296.106 134.245 296.161 134.451 296.271 134.578C296.384 134.701 296.585 134.763 296.872 134.763C297.063 134.763 297.257 134.74 297.453 134.694V135.979C297.075 136.084 296.71 136.137 296.359 136.137C295.083 136.137 294.445 135.433 294.445 134.024V129.834H293.229V128.604H294.445V126.806H296.106ZM301.944 136.137C300.892 136.137 300.037 135.806 299.381 135.146C298.729 134.48 298.403 133.596 298.403 132.493V132.288C298.403 131.55 298.545 130.891 298.827 130.312C299.114 129.729 299.515 129.276 300.03 128.952C300.545 128.629 301.119 128.467 301.753 128.467C302.76 128.467 303.537 128.788 304.084 129.431C304.635 130.073 304.911 130.982 304.911 132.158V132.828H300.078C300.128 133.439 300.331 133.922 300.687 134.277C301.047 134.633 301.498 134.811 302.04 134.811C302.801 134.811 303.421 134.503 303.899 133.888L304.795 134.742C304.499 135.184 304.102 135.528 303.605 135.774C303.113 136.016 302.56 136.137 301.944 136.137ZM301.746 129.8C301.29 129.8 300.921 129.959 300.639 130.278C300.361 130.597 300.183 131.042 300.105 131.611H303.271V131.488C303.234 130.932 303.086 130.513 302.826 130.23C302.566 129.943 302.206 129.8 301.746 129.8ZM310.079 130.121C309.86 130.085 309.635 130.066 309.402 130.066C308.641 130.066 308.129 130.358 307.864 130.941V136H306.203V128.604H307.789L307.83 129.431C308.231 128.788 308.787 128.467 309.498 128.467C309.735 128.467 309.931 128.499 310.086 128.562L310.079 130.121ZM321.557 127.441H318.453V136H316.737V127.441H313.661V126.047H321.557V127.441ZM324.346 129.41C324.888 128.781 325.574 128.467 326.403 128.467C327.98 128.467 328.78 129.367 328.803 131.167V136H327.142V131.229C327.142 130.718 327.03 130.358 326.807 130.148C326.588 129.934 326.264 129.827 325.836 129.827C325.171 129.827 324.674 130.123 324.346 130.716V136H322.685V125.5H324.346V129.41ZM334.36 130.121C334.142 130.085 333.916 130.066 333.684 130.066C332.923 130.066 332.41 130.358 332.146 130.941V136H330.484V128.604H332.07L332.111 129.431C332.512 128.788 333.068 128.467 333.779 128.467C334.016 128.467 334.212 128.499 334.367 128.562L334.36 130.121ZM338.53 136.137C337.478 136.137 336.623 135.806 335.967 135.146C335.315 134.48 334.989 133.596 334.989 132.493V132.288C334.989 131.55 335.131 130.891 335.413 130.312C335.7 129.729 336.101 129.276 336.616 128.952C337.131 128.629 337.705 128.467 338.339 128.467C339.346 128.467 340.123 128.788 340.67 129.431C341.221 130.073 341.497 130.982 341.497 132.158V132.828H336.664C336.714 133.439 336.917 133.922 337.272 134.277C337.632 134.633 338.084 134.811 338.626 134.811C339.387 134.811 340.007 134.503 340.485 133.888L341.381 134.742C341.085 135.184 340.688 135.528 340.191 135.774C339.699 136.016 339.146 136.137 338.53 136.137ZM338.332 129.8C337.876 129.8 337.507 129.959 337.225 130.278C336.947 130.597 336.769 131.042 336.691 131.611H339.856V131.488C339.82 130.932 339.672 130.513 339.412 130.23C339.152 129.943 338.792 129.8 338.332 129.8ZM347.212 136C347.139 135.859 347.075 135.629 347.021 135.31C346.492 135.861 345.845 136.137 345.079 136.137C344.336 136.137 343.73 135.925 343.261 135.501C342.791 135.077 342.557 134.553 342.557 133.929C342.557 133.14 342.848 132.536 343.432 132.117C344.02 131.693 344.858 131.481 345.947 131.481H346.966V130.996C346.966 130.613 346.859 130.308 346.645 130.08C346.43 129.848 346.104 129.731 345.667 129.731C345.289 129.731 344.979 129.827 344.737 130.019C344.496 130.205 344.375 130.445 344.375 130.736H342.714C342.714 130.331 342.848 129.952 343.117 129.602C343.386 129.246 343.751 128.968 344.211 128.768C344.676 128.567 345.193 128.467 345.763 128.467C346.629 128.467 347.319 128.686 347.834 129.123C348.349 129.556 348.613 130.167 348.627 130.955V134.291C348.627 134.956 348.72 135.487 348.907 135.884V136H347.212ZM345.387 134.804C345.715 134.804 346.022 134.724 346.31 134.564C346.601 134.405 346.82 134.191 346.966 133.922V132.527H346.07C345.455 132.527 344.993 132.634 344.683 132.849C344.373 133.063 344.218 133.366 344.218 133.758C344.218 134.077 344.323 134.332 344.532 134.523C344.746 134.71 345.031 134.804 345.387 134.804ZM350.056 132.247C350.056 131.108 350.32 130.194 350.849 129.506C351.377 128.813 352.086 128.467 352.975 128.467C353.758 128.467 354.392 128.74 354.875 129.287V125.5H356.536V136H355.032L354.95 135.234C354.453 135.836 353.79 136.137 352.961 136.137C352.095 136.137 351.393 135.788 350.855 135.091C350.322 134.394 350.056 133.446 350.056 132.247ZM351.717 132.391C351.717 133.143 351.86 133.73 352.147 134.154C352.439 134.574 352.852 134.783 353.385 134.783C354.064 134.783 354.561 134.48 354.875 133.874V130.716C354.57 130.123 354.077 129.827 353.398 129.827C352.861 129.827 352.446 130.041 352.154 130.47C351.863 130.894 351.717 131.534 351.717 132.391ZM362.415 133.99C362.415 133.694 362.292 133.468 362.046 133.313C361.804 133.159 361.401 133.022 360.836 132.903C360.271 132.785 359.799 132.634 359.421 132.452C358.591 132.051 358.177 131.47 358.177 130.709C358.177 130.071 358.446 129.538 358.983 129.109C359.521 128.681 360.205 128.467 361.034 128.467C361.918 128.467 362.632 128.686 363.174 129.123C363.721 129.561 363.994 130.128 363.994 130.825H362.333C362.333 130.506 362.215 130.242 361.978 130.032C361.741 129.818 361.426 129.711 361.034 129.711C360.67 129.711 360.371 129.795 360.139 129.964C359.911 130.132 359.797 130.358 359.797 130.641C359.797 130.896 359.904 131.094 360.118 131.235C360.332 131.377 360.765 131.52 361.417 131.666C362.069 131.807 362.579 131.978 362.948 132.179C363.322 132.375 363.598 132.612 363.775 132.89C363.958 133.168 364.049 133.505 364.049 133.901C364.049 134.567 363.773 135.107 363.222 135.521C362.67 135.932 361.948 136.137 361.055 136.137C360.449 136.137 359.909 136.027 359.435 135.809C358.961 135.59 358.591 135.289 358.327 134.906C358.063 134.523 357.931 134.111 357.931 133.669H359.544C359.567 134.061 359.715 134.364 359.988 134.578C360.262 134.788 360.624 134.893 361.075 134.893C361.513 134.893 361.845 134.811 362.073 134.646C362.301 134.478 362.415 134.259 362.415 133.99Z" fill="black"/>
<path d="M281.126 205V195.047H284.537C285.663 195.047 286.52 195.272 287.107 195.724C287.695 196.175 287.989 196.847 287.989 197.74C287.989 198.196 287.866 198.606 287.62 198.971C287.374 199.335 287.014 199.618 286.54 199.818C287.078 199.964 287.493 200.24 287.784 200.646C288.08 201.047 288.229 201.53 288.229 202.095C288.229 203.029 287.928 203.747 287.326 204.248C286.729 204.749 285.872 205 284.756 205H281.126ZM282.855 200.509V203.619H284.776C285.319 203.619 285.743 203.485 286.048 203.216C286.353 202.947 286.506 202.573 286.506 202.095C286.506 201.06 285.977 200.532 284.92 200.509H282.855ZM282.855 199.237H284.551C285.089 199.237 285.508 199.117 285.809 198.875C286.114 198.629 286.267 198.283 286.267 197.836C286.267 197.344 286.125 196.988 285.843 196.77C285.565 196.551 285.13 196.441 284.537 196.441H282.855V199.237ZM291.564 205H289.903V194.5H291.564V205ZM293.068 201.233C293.068 200.509 293.212 199.857 293.499 199.278C293.786 198.695 294.189 198.248 294.709 197.938C295.229 197.624 295.826 197.467 296.5 197.467C297.498 197.467 298.307 197.788 298.927 198.431C299.551 199.073 299.888 199.925 299.938 200.987L299.945 201.377C299.945 202.106 299.804 202.758 299.521 203.332C299.243 203.906 298.842 204.351 298.318 204.665C297.799 204.979 297.197 205.137 296.514 205.137C295.47 205.137 294.634 204.79 294.005 204.098C293.381 203.4 293.068 202.473 293.068 201.315V201.233ZM294.729 201.377C294.729 202.138 294.887 202.735 295.201 203.168C295.516 203.596 295.953 203.811 296.514 203.811C297.074 203.811 297.509 203.592 297.819 203.154C298.134 202.717 298.291 202.076 298.291 201.233C298.291 200.486 298.129 199.894 297.806 199.456C297.487 199.019 297.051 198.8 296.5 198.8C295.958 198.8 295.527 199.016 295.208 199.449C294.889 199.878 294.729 200.52 294.729 201.377ZM301.06 201.247C301.06 200.099 301.328 199.183 301.866 198.499C302.409 197.811 303.126 197.467 304.02 197.467C304.863 197.467 305.526 197.761 306.009 198.349L306.084 197.604H307.581V204.774C307.581 205.745 307.278 206.511 306.672 207.071C306.07 207.632 305.257 207.912 304.231 207.912C303.689 207.912 303.158 207.798 302.639 207.57C302.124 207.347 301.732 207.053 301.463 206.688L302.249 205.69C302.759 206.297 303.388 206.6 304.136 206.6C304.687 206.6 305.122 206.449 305.441 206.148C305.76 205.852 305.92 205.415 305.92 204.836V204.337C305.441 204.87 304.803 205.137 304.006 205.137C303.14 205.137 302.431 204.793 301.88 204.104C301.333 203.416 301.06 202.464 301.06 201.247ZM302.714 201.391C302.714 202.133 302.864 202.719 303.165 203.147C303.47 203.571 303.892 203.783 304.43 203.783C305.1 203.783 305.596 203.496 305.92 202.922V199.668C305.605 199.107 305.113 198.827 304.443 198.827C303.896 198.827 303.47 199.044 303.165 199.477C302.864 199.91 302.714 200.548 302.714 201.391ZM314.67 201.302V205H312.94V195.047H316.748C317.86 195.047 318.742 195.336 319.394 195.915C320.05 196.494 320.378 197.259 320.378 198.212C320.378 199.187 320.057 199.946 319.414 200.488C318.776 201.031 317.881 201.302 316.728 201.302H314.67ZM314.67 199.914H316.748C317.363 199.914 317.833 199.771 318.156 199.483C318.48 199.192 318.642 198.772 318.642 198.226C318.642 197.688 318.478 197.259 318.149 196.94C317.821 196.617 317.37 196.451 316.796 196.441H314.67V199.914ZM321.328 201.233C321.328 200.509 321.472 199.857 321.759 199.278C322.046 198.695 322.449 198.248 322.969 197.938C323.488 197.624 324.085 197.467 324.76 197.467C325.758 197.467 326.567 197.788 327.187 198.431C327.811 199.073 328.148 199.925 328.198 200.987L328.205 201.377C328.205 202.106 328.064 202.758 327.781 203.332C327.503 203.906 327.102 204.351 326.578 204.665C326.059 204.979 325.457 205.137 324.773 205.137C323.73 205.137 322.894 204.79 322.265 204.098C321.64 203.4 321.328 202.473 321.328 201.315V201.233ZM322.989 201.377C322.989 202.138 323.146 202.735 323.461 203.168C323.775 203.596 324.213 203.811 324.773 203.811C325.334 203.811 325.769 203.592 326.079 203.154C326.394 202.717 326.551 202.076 326.551 201.233C326.551 200.486 326.389 199.894 326.065 199.456C325.746 199.019 325.311 198.8 324.76 198.8C324.217 198.8 323.787 199.016 323.468 199.449C323.149 199.878 322.989 200.52 322.989 201.377ZM333.756 202.99C333.756 202.694 333.633 202.468 333.387 202.313C333.145 202.159 332.742 202.022 332.177 201.903C331.612 201.785 331.14 201.634 330.762 201.452C329.932 201.051 329.518 200.47 329.518 199.709C329.518 199.071 329.786 198.538 330.324 198.109C330.862 197.681 331.546 197.467 332.375 197.467C333.259 197.467 333.972 197.686 334.515 198.123C335.062 198.561 335.335 199.128 335.335 199.825H333.674C333.674 199.506 333.555 199.242 333.318 199.032C333.081 198.818 332.767 198.711 332.375 198.711C332.01 198.711 331.712 198.795 331.479 198.964C331.252 199.132 331.138 199.358 331.138 199.641C331.138 199.896 331.245 200.094 331.459 200.235C331.673 200.377 332.106 200.52 332.758 200.666C333.41 200.807 333.92 200.978 334.289 201.179C334.663 201.375 334.938 201.612 335.116 201.89C335.299 202.168 335.39 202.505 335.39 202.901C335.39 203.567 335.114 204.107 334.562 204.521C334.011 204.932 333.289 205.137 332.396 205.137C331.789 205.137 331.249 205.027 330.775 204.809C330.301 204.59 329.932 204.289 329.668 203.906C329.404 203.523 329.271 203.111 329.271 202.669H330.885C330.908 203.061 331.056 203.364 331.329 203.578C331.603 203.788 331.965 203.893 332.416 203.893C332.854 203.893 333.186 203.811 333.414 203.646C333.642 203.478 333.756 203.259 333.756 202.99ZM338.924 195.806V197.604H340.229V198.834H338.924V202.963C338.924 203.245 338.979 203.451 339.088 203.578C339.202 203.701 339.402 203.763 339.689 203.763C339.881 203.763 340.075 203.74 340.271 203.694V204.979C339.892 205.084 339.528 205.137 339.177 205.137C337.901 205.137 337.263 204.433 337.263 203.024V198.834H336.046V197.604H337.263V195.806H338.924ZM345.65 202.99C345.65 202.694 345.527 202.468 345.281 202.313C345.04 202.159 344.636 202.022 344.071 201.903C343.506 201.785 343.035 201.634 342.656 201.452C341.827 201.051 341.412 200.47 341.412 199.709C341.412 199.071 341.681 198.538 342.219 198.109C342.757 197.681 343.44 197.467 344.27 197.467C345.154 197.467 345.867 197.686 346.409 198.123C346.956 198.561 347.229 199.128 347.229 199.825H345.568C345.568 199.506 345.45 199.242 345.213 199.032C344.976 198.818 344.661 198.711 344.27 198.711C343.905 198.711 343.606 198.795 343.374 198.964C343.146 199.132 343.032 199.358 343.032 199.641C343.032 199.896 343.139 200.094 343.354 200.235C343.568 200.377 344.001 200.52 344.652 200.666C345.304 200.807 345.814 200.978 346.184 201.179C346.557 201.375 346.833 201.612 347.011 201.89C347.193 202.168 347.284 202.505 347.284 202.901C347.284 203.567 347.008 204.107 346.457 204.521C345.906 204.932 345.183 205.137 344.29 205.137C343.684 205.137 343.144 205.027 342.67 204.809C342.196 204.59 341.827 204.289 341.562 203.906C341.298 203.523 341.166 203.111 341.166 202.669H342.779C342.802 203.061 342.95 203.364 343.224 203.578C343.497 203.788 343.859 203.893 344.311 203.893C344.748 203.893 345.081 203.811 345.309 203.646C345.536 203.478 345.65 203.259 345.65 202.99Z" fill="black"/>
<path d="M316.361 43H314.639V33.0469H316.361V43ZM306.859 49.0469H308.582V56.0264C308.582 56.9788 308.284 57.7354 307.687 58.2959C307.094 58.8564 306.31 59.1367 305.335 59.1367C304.296 59.1367 303.494 58.8747 302.929 58.3506C302.364 57.8265 302.081 57.0973 302.081 56.1631H303.804C303.804 56.6917 303.934 57.0905 304.193 57.3594C304.458 57.6237 304.838 57.7559 305.335 57.7559C305.8 57.7559 306.169 57.6032 306.442 57.2979C306.72 56.988 306.859 56.5618 306.859 56.0195V49.0469ZM314.885 58.2754C314.397 58.8496 313.704 59.1367 312.807 59.1367C312.005 59.1367 311.396 58.902 310.981 58.4326C310.571 57.9632 310.366 57.2842 310.366 56.3955V51.6035H312.027V56.375C312.027 57.3138 312.417 57.7832 313.196 57.7832C314.003 57.7832 314.548 57.4938 314.83 56.915V51.6035H316.491V59H314.926L314.885 58.2754ZM322.329 56.9902C322.329 56.694 322.206 56.4684 321.96 56.3135C321.718 56.1585 321.315 56.0218 320.75 55.9033C320.185 55.7848 319.713 55.6344 319.335 55.4521C318.506 55.0511 318.091 54.4701 318.091 53.709C318.091 53.071 318.36 52.5378 318.897 52.1094C319.435 51.681 320.119 51.4668 320.948 51.4668C321.832 51.4668 322.546 51.6855 323.088 52.123C323.635 52.5605 323.908 53.1279 323.908 53.8252H322.247C322.247 53.5062 322.129 53.2419 321.892 53.0322C321.655 52.818 321.34 52.7109 320.948 52.7109C320.584 52.7109 320.285 52.7952 320.053 52.9639C319.825 53.1325 319.711 53.3581 319.711 53.6406C319.711 53.8958 319.818 54.0941 320.032 54.2354C320.246 54.3766 320.679 54.5202 321.331 54.666C321.983 54.8073 322.493 54.9782 322.862 55.1787C323.236 55.3747 323.512 55.6117 323.689 55.8896C323.872 56.1676 323.963 56.5049 323.963 56.9014C323.963 57.5667 323.687 58.1068 323.136 58.5215C322.584 58.9316 321.862 59.1367 320.969 59.1367C320.363 59.1367 319.823 59.0273 319.349 58.8086C318.875 58.5898 318.506 58.2891 318.241 57.9062C317.977 57.5234 317.845 57.111 317.845 56.6689H319.458C319.481 57.0609 319.629 57.3639 319.902 57.5781C320.176 57.7878 320.538 57.8926 320.989 57.8926C321.427 57.8926 321.759 57.8105 321.987 57.6465C322.215 57.4779 322.329 57.2591 322.329 56.9902ZM327.497 49.8057V51.6035H328.803V52.834H327.497V56.9629C327.497 57.2454 327.552 57.4505 327.661 57.5781C327.775 57.7012 327.976 57.7627 328.263 57.7627C328.454 57.7627 328.648 57.7399 328.844 57.6943V58.9795C328.465 59.0843 328.101 59.1367 327.75 59.1367C326.474 59.1367 325.836 58.4326 325.836 57.0244V52.834H324.619V51.6035H325.836V49.8057H327.497ZM301.869 70.7002L300.741 71.8965V75H299.012V65.0469H300.741V69.7158L301.698 68.5332L304.61 65.0469H306.702L303.004 69.4561L306.914 75H304.863L301.869 70.7002ZM309.225 67.6035L309.272 68.458C309.819 67.7972 310.537 67.4668 311.426 67.4668C312.966 67.4668 313.75 68.3486 313.777 70.1123V75H312.116V70.208C312.116 69.7386 312.014 69.3923 311.809 69.1689C311.608 68.9411 311.278 68.8271 310.817 68.8271C310.147 68.8271 309.648 69.1302 309.32 69.7363V75H307.659V67.6035H309.225ZM315.165 71.2334C315.165 70.5088 315.309 69.8571 315.596 69.2783C315.883 68.695 316.286 68.2484 316.806 67.9385C317.325 67.624 317.922 67.4668 318.597 67.4668C319.595 67.4668 320.404 67.7881 321.023 68.4307C321.648 69.0732 321.985 69.9255 322.035 70.9873L322.042 71.377C322.042 72.1061 321.901 72.7578 321.618 73.332C321.34 73.9062 320.939 74.3506 320.415 74.665C319.896 74.9795 319.294 75.1367 318.61 75.1367C317.567 75.1367 316.73 74.7904 316.102 74.0977C315.477 73.4004 315.165 72.473 315.165 71.3154V71.2334ZM316.826 71.377C316.826 72.138 316.983 72.735 317.298 73.168C317.612 73.5964 318.05 73.8105 318.61 73.8105C319.171 73.8105 319.606 73.5918 319.916 73.1543C320.23 72.7168 320.388 72.0765 320.388 71.2334C320.388 70.486 320.226 69.8936 319.902 69.4561C319.583 69.0186 319.148 68.7998 318.597 68.7998C318.054 68.7998 317.624 69.0163 317.305 69.4492C316.986 69.8776 316.826 70.5202 316.826 71.377ZM329.944 72.71L331.12 67.6035H332.74L330.724 75H329.356L327.771 69.9209L326.212 75H324.845L322.821 67.6035H324.441L325.638 72.6553L327.155 67.6035H328.406L329.944 72.71Z" fill="black"/>
<path d="M296.724 345.764L299.014 341.047H300.928L297.592 347.336V351H295.855V347.336L292.513 341.047H294.434L296.724 345.764ZM301.085 347.233C301.085 346.509 301.229 345.857 301.516 345.278C301.803 344.695 302.206 344.248 302.726 343.938C303.245 343.624 303.842 343.467 304.517 343.467C305.515 343.467 306.324 343.788 306.943 344.431C307.568 345.073 307.905 345.925 307.955 346.987L307.962 347.377C307.962 348.106 307.821 348.758 307.538 349.332C307.26 349.906 306.859 350.351 306.335 350.665C305.815 350.979 305.214 351.137 304.53 351.137C303.487 351.137 302.65 350.79 302.021 350.098C301.397 349.4 301.085 348.473 301.085 347.315V347.233ZM302.746 347.377C302.746 348.138 302.903 348.735 303.218 349.168C303.532 349.596 303.97 349.811 304.53 349.811C305.091 349.811 305.526 349.592 305.836 349.154C306.15 348.717 306.308 348.076 306.308 347.233C306.308 346.486 306.146 345.894 305.822 345.456C305.503 345.019 305.068 344.8 304.517 344.8C303.974 344.8 303.544 345.016 303.225 345.449C302.906 345.878 302.746 346.52 302.746 347.377ZM313.848 350.275C313.36 350.85 312.667 351.137 311.77 351.137C310.967 351.137 310.359 350.902 309.944 350.433C309.534 349.963 309.329 349.284 309.329 348.396V343.604H310.99V348.375C310.99 349.314 311.38 349.783 312.159 349.783C312.966 349.783 313.51 349.494 313.793 348.915V343.604H315.454V351H313.889L313.848 350.275ZM324.498 342.441H321.395V351H319.679V342.441H316.603V341.047H324.498V342.441ZM329.68 350.275C329.192 350.85 328.499 351.137 327.602 351.137C326.799 351.137 326.191 350.902 325.776 350.433C325.366 349.963 325.161 349.284 325.161 348.396V343.604H326.822V348.375C326.822 349.314 327.212 349.783 327.991 349.783C328.798 349.783 329.342 349.494 329.625 348.915V343.604H331.286V351H329.721L329.68 350.275ZM339.469 347.377C339.469 348.525 339.211 349.439 338.696 350.118C338.186 350.797 337.482 351.137 336.584 351.137C335.718 351.137 335.044 350.825 334.561 350.2L334.479 351H332.975V340.5H334.636V344.314C335.114 343.749 335.759 343.467 336.57 343.467C337.473 343.467 338.181 343.802 338.696 344.472C339.211 345.142 339.469 346.078 339.469 347.281V347.377ZM337.808 347.233C337.808 346.431 337.666 345.83 337.384 345.429C337.101 345.028 336.691 344.827 336.153 344.827C335.433 344.827 334.927 345.142 334.636 345.771V348.819C334.932 349.462 335.442 349.783 336.167 349.783C336.687 349.783 337.088 349.59 337.37 349.202C337.653 348.815 337.799 348.229 337.808 347.445V347.233ZM344.124 351.137C343.071 351.137 342.217 350.806 341.561 350.146C340.909 349.48 340.583 348.596 340.583 347.493V347.288C340.583 346.55 340.724 345.891 341.007 345.312C341.294 344.729 341.695 344.276 342.21 343.952C342.725 343.629 343.299 343.467 343.933 343.467C344.94 343.467 345.717 343.788 346.264 344.431C346.815 345.073 347.091 345.982 347.091 347.158V347.828H342.258C342.308 348.439 342.511 348.922 342.866 349.277C343.226 349.633 343.677 349.811 344.22 349.811C344.981 349.811 345.601 349.503 346.079 348.888L346.975 349.742C346.678 350.184 346.282 350.528 345.785 350.774C345.293 351.016 344.739 351.137 344.124 351.137ZM343.926 344.8C343.47 344.8 343.101 344.959 342.818 345.278C342.54 345.597 342.363 346.042 342.285 346.611H345.45V346.488C345.414 345.932 345.266 345.513 345.006 345.23C344.746 344.943 344.386 344.8 343.926 344.8ZM266.413 364.696L268.443 359.604H270.07L266.83 367H265.497L264.848 361.941L262.455 367H261.115L260.438 359.604H261.97L262.25 364.621L264.588 359.604H265.812L266.413 364.696ZM271.615 367H269.995L271.28 359.604H272.9L271.615 367ZM271.513 357.71C271.513 357.459 271.595 357.245 271.759 357.067C271.923 356.89 272.144 356.796 272.422 356.787C272.686 356.778 272.905 356.86 273.078 357.033C273.256 357.202 273.345 357.409 273.345 357.655C273.345 357.915 273.258 358.129 273.085 358.298C272.916 358.466 272.7 358.555 272.436 358.564C272.176 358.574 271.957 358.496 271.779 358.332C271.602 358.163 271.513 357.956 271.513 357.71ZM277.063 357.806L276.749 359.604H278.014L277.802 360.834H276.53L275.833 364.977C275.819 365.09 275.817 365.193 275.826 365.284C275.854 365.58 276.036 365.735 276.373 365.749C276.542 365.749 276.733 365.729 276.947 365.688L276.838 366.986C276.501 367.082 276.161 367.13 275.819 367.13C275.254 367.121 274.83 366.929 274.548 366.556C274.27 366.177 274.16 365.678 274.22 365.059L274.91 360.834H273.728L273.946 359.604H275.122L275.437 357.806H277.063ZM280.7 360.417C281.315 359.77 282.015 359.455 282.799 359.474C283.501 359.483 284.02 359.731 284.357 360.219C284.699 360.706 284.827 361.381 284.74 362.242L283.947 367H282.327L283.134 362.222C283.157 362.026 283.161 361.843 283.147 361.675C283.088 361.119 282.76 360.834 282.163 360.82C281.562 360.811 281.024 361.107 280.55 361.709L279.627 367H278.007L279.825 356.5H281.452L280.7 360.417ZM286.032 363.274C286.11 362.55 286.322 361.891 286.668 361.299C287.019 360.706 287.468 360.248 288.015 359.925C288.562 359.601 289.168 359.449 289.833 359.467C290.466 359.476 291.013 359.645 291.474 359.973C291.934 360.301 292.269 360.75 292.479 361.319C292.693 361.889 292.768 362.522 292.704 363.22C292.631 364.004 292.417 364.696 292.062 365.298C291.711 365.899 291.259 366.362 290.708 366.686C290.161 367.005 289.553 367.155 288.883 367.137C288.254 367.128 287.709 366.961 287.249 366.638C286.793 366.31 286.458 365.863 286.244 365.298C286.03 364.728 285.952 364.102 286.012 363.418L286.032 363.274ZM287.625 364.211C287.648 364.689 287.773 365.075 288.001 365.366C288.233 365.653 288.555 365.804 288.965 365.817C289.521 365.831 289.986 365.617 290.359 365.175C290.738 364.733 290.975 364.129 291.07 363.363L291.111 362.693C291.111 362.11 290.995 361.652 290.763 361.319C290.53 360.987 290.193 360.811 289.751 360.793C289.058 360.775 288.511 361.114 288.11 361.812C287.869 362.235 287.716 362.723 287.652 363.274C287.616 363.657 287.607 363.969 287.625 364.211ZM298.022 366.269C297.462 366.866 296.76 367.155 295.917 367.137C295.438 367.128 295.04 367.009 294.721 366.781C294.406 366.553 294.181 366.237 294.044 365.831C293.912 365.421 293.873 364.94 293.928 364.389L294.728 359.604H296.348L295.541 364.409C295.523 364.578 295.521 364.742 295.534 364.901C295.58 365.466 295.865 365.76 296.389 365.783C297.104 365.811 297.683 365.523 298.125 364.922L299.055 359.604H300.675L299.396 367H297.879L298.022 366.269ZM304.694 357.806L304.38 359.604H305.645L305.433 360.834H304.161L303.464 364.977C303.45 365.09 303.448 365.193 303.457 365.284C303.484 365.58 303.667 365.735 304.004 365.749C304.173 365.749 304.364 365.729 304.578 365.688L304.469 366.986C304.132 367.082 303.792 367.13 303.45 367.13C302.885 367.121 302.461 366.929 302.179 366.556C301.901 366.177 301.791 365.678 301.851 365.059L302.541 360.834H301.358L301.577 359.604H302.753L303.067 357.806H304.694ZM315.591 364.683H311.735L310.929 367H309.131L312.891 357.047H314.442L318.209 367H316.404L315.591 364.683ZM312.221 363.288H315.105L313.663 359.159L312.221 363.288ZM320.396 359.604L320.444 360.458C320.991 359.797 321.709 359.467 322.598 359.467C324.138 359.467 324.922 360.349 324.949 362.112V367H323.288V362.208C323.288 361.739 323.186 361.392 322.98 361.169C322.78 360.941 322.45 360.827 321.989 360.827C321.319 360.827 320.82 361.13 320.492 361.736V367H318.831V359.604H320.396ZM328.415 367H326.754V359.604H328.415V367ZM326.651 357.683C326.651 357.427 326.731 357.215 326.891 357.047C327.055 356.878 327.287 356.794 327.588 356.794C327.889 356.794 328.121 356.878 328.285 357.047C328.449 357.215 328.531 357.427 328.531 357.683C328.531 357.933 328.449 358.143 328.285 358.312C328.121 358.476 327.889 358.558 327.588 358.558C327.287 358.558 327.055 358.476 326.891 358.312C326.731 358.143 326.651 357.933 326.651 357.683ZM331.792 359.604L331.84 360.376C332.359 359.77 333.07 359.467 333.973 359.467C334.962 359.467 335.638 359.845 336.003 360.602C336.541 359.845 337.297 359.467 338.272 359.467C339.088 359.467 339.694 359.692 340.091 360.144C340.492 360.595 340.697 361.26 340.706 362.14V367H339.045V362.188C339.045 361.718 338.942 361.374 338.737 361.155C338.532 360.937 338.193 360.827 337.719 360.827C337.34 360.827 337.031 360.93 336.789 361.135C336.552 361.335 336.386 361.6 336.29 361.928L336.297 367H334.636V362.133C334.613 361.262 334.169 360.827 333.303 360.827C332.637 360.827 332.166 361.098 331.888 361.641V367H330.227V359.604H331.792ZM346.831 367C346.758 366.859 346.694 366.629 346.64 366.31C346.111 366.861 345.464 367.137 344.698 367.137C343.955 367.137 343.349 366.925 342.88 366.501C342.41 366.077 342.176 365.553 342.176 364.929C342.176 364.14 342.467 363.536 343.051 363.117C343.639 362.693 344.477 362.481 345.566 362.481H346.585V361.996C346.585 361.613 346.478 361.308 346.264 361.08C346.049 360.848 345.724 360.731 345.286 360.731C344.908 360.731 344.598 360.827 344.356 361.019C344.115 361.205 343.994 361.445 343.994 361.736H342.333C342.333 361.331 342.467 360.952 342.736 360.602C343.005 360.246 343.37 359.968 343.83 359.768C344.295 359.567 344.812 359.467 345.382 359.467C346.248 359.467 346.938 359.686 347.453 360.123C347.968 360.556 348.232 361.167 348.246 361.955V365.291C348.246 365.956 348.34 366.487 348.526 366.884V367H346.831ZM345.006 365.804C345.334 365.804 345.642 365.724 345.929 365.564C346.22 365.405 346.439 365.191 346.585 364.922V363.527H345.689C345.074 363.527 344.612 363.634 344.302 363.849C343.992 364.063 343.837 364.366 343.837 364.758C343.837 365.077 343.942 365.332 344.151 365.523C344.366 365.71 344.65 365.804 345.006 365.804ZM352.067 357.806V359.604H353.373V360.834H352.067V364.963C352.067 365.245 352.122 365.451 352.231 365.578C352.345 365.701 352.546 365.763 352.833 365.763C353.024 365.763 353.218 365.74 353.414 365.694V366.979C353.036 367.084 352.671 367.137 352.32 367.137C351.044 367.137 350.406 366.433 350.406 365.024V360.834H349.189V359.604H350.406V357.806H352.067ZM356.415 367H354.754V359.604H356.415V367ZM354.651 357.683C354.651 357.427 354.731 357.215 354.891 357.047C355.055 356.878 355.287 356.794 355.588 356.794C355.889 356.794 356.121 356.878 356.285 357.047C356.449 357.215 356.531 357.427 356.531 357.683C356.531 357.933 356.449 358.143 356.285 358.312C356.121 358.476 355.889 358.558 355.588 358.558C355.287 358.558 355.055 358.476 354.891 358.312C354.731 358.143 354.651 357.933 354.651 357.683ZM357.919 363.233C357.919 362.509 358.062 361.857 358.35 361.278C358.637 360.695 359.04 360.248 359.56 359.938C360.079 359.624 360.676 359.467 361.351 359.467C362.349 359.467 363.158 359.788 363.777 360.431C364.402 361.073 364.739 361.925 364.789 362.987L364.796 363.377C364.796 364.106 364.655 364.758 364.372 365.332C364.094 365.906 363.693 366.351 363.169 366.665C362.649 366.979 362.048 367.137 361.364 367.137C360.321 367.137 359.484 366.79 358.855 366.098C358.231 365.4 357.919 364.473 357.919 363.315V363.233ZM359.58 363.377C359.58 364.138 359.737 364.735 360.052 365.168C360.366 365.596 360.804 365.811 361.364 365.811C361.925 365.811 362.36 365.592 362.67 365.154C362.984 364.717 363.142 364.076 363.142 363.233C363.142 362.486 362.98 361.894 362.656 361.456C362.337 361.019 361.902 360.8 361.351 360.8C360.808 360.8 360.378 361.016 360.059 361.449C359.74 361.878 359.58 362.52 359.58 363.377ZM367.742 359.604L367.79 360.458C368.337 359.797 369.055 359.467 369.943 359.467C371.484 359.467 372.268 360.349 372.295 362.112V367H370.634V362.208C370.634 361.739 370.531 361.392 370.326 361.169C370.126 360.941 369.795 360.827 369.335 360.827C368.665 360.827 368.166 361.13 367.838 361.736V367H366.177V359.604H367.742ZM378.14 364.99C378.14 364.694 378.017 364.468 377.771 364.313C377.529 364.159 377.126 364.022 376.561 363.903C375.995 363.785 375.524 363.634 375.146 363.452C374.316 363.051 373.901 362.47 373.901 361.709C373.901 361.071 374.17 360.538 374.708 360.109C375.246 359.681 375.929 359.467 376.759 359.467C377.643 359.467 378.356 359.686 378.898 360.123C379.445 360.561 379.719 361.128 379.719 361.825H378.058C378.058 361.506 377.939 361.242 377.702 361.032C377.465 360.818 377.151 360.711 376.759 360.711C376.394 360.711 376.096 360.795 375.863 360.964C375.635 361.132 375.521 361.358 375.521 361.641C375.521 361.896 375.629 362.094 375.843 362.235C376.057 362.377 376.49 362.52 377.142 362.666C377.793 362.807 378.304 362.978 378.673 363.179C379.047 363.375 379.322 363.612 379.5 363.89C379.682 364.168 379.773 364.505 379.773 364.901C379.773 365.567 379.498 366.107 378.946 366.521C378.395 366.932 377.673 367.137 376.779 367.137C376.173 367.137 375.633 367.027 375.159 366.809C374.685 366.59 374.316 366.289 374.052 365.906C373.787 365.523 373.655 365.111 373.655 364.669H375.269C375.291 365.061 375.439 365.364 375.713 365.578C375.986 365.788 376.349 365.893 376.8 365.893C377.237 365.893 377.57 365.811 377.798 365.646C378.026 365.478 378.14 365.259 378.14 364.99Z" fill="black"/>
<path d="M291.224 264.764L293.514 260.047H295.428L292.092 266.336V270H290.355V266.336L287.013 260.047H288.934L291.224 264.764ZM295.585 266.233C295.585 265.509 295.729 264.857 296.016 264.278C296.303 263.695 296.706 263.248 297.226 262.938C297.745 262.624 298.342 262.467 299.017 262.467C300.015 262.467 300.824 262.788 301.443 263.431C302.068 264.073 302.405 264.925 302.455 265.987L302.462 266.377C302.462 267.106 302.321 267.758 302.038 268.332C301.76 268.906 301.359 269.351 300.835 269.665C300.315 269.979 299.714 270.137 299.03 270.137C297.987 270.137 297.15 269.79 296.521 269.098C295.897 268.4 295.585 267.473 295.585 266.315V266.233ZM297.246 266.377C297.246 267.138 297.403 267.735 297.718 268.168C298.032 268.596 298.47 268.811 299.03 268.811C299.591 268.811 300.026 268.592 300.336 268.154C300.65 267.717 300.808 267.076 300.808 266.233C300.808 265.486 300.646 264.894 300.322 264.456C300.003 264.019 299.568 263.8 299.017 263.8C298.474 263.8 298.044 264.016 297.725 264.449C297.406 264.878 297.246 265.52 297.246 266.377ZM308.348 269.275C307.86 269.85 307.167 270.137 306.27 270.137C305.467 270.137 304.859 269.902 304.444 269.433C304.034 268.963 303.829 268.284 303.829 267.396V262.604H305.49V267.375C305.49 268.314 305.88 268.783 306.659 268.783C307.466 268.783 308.01 268.494 308.293 267.915V262.604H309.954V270H308.389L308.348 269.275ZM318.998 261.441H315.895V270H314.179V261.441H311.103V260.047H318.998V261.441ZM324.18 269.275C323.692 269.85 322.999 270.137 322.102 270.137C321.299 270.137 320.691 269.902 320.276 269.433C319.866 268.963 319.661 268.284 319.661 267.396V262.604H321.322V267.375C321.322 268.314 321.712 268.783 322.491 268.783C323.298 268.783 323.842 268.494 324.125 267.915V262.604H325.786V270H324.221L324.18 269.275ZM333.969 266.377C333.969 267.525 333.711 268.439 333.196 269.118C332.686 269.797 331.982 270.137 331.084 270.137C330.218 270.137 329.544 269.825 329.061 269.2L328.979 270H327.475V259.5H329.136V263.314C329.614 262.749 330.259 262.467 331.07 262.467C331.973 262.467 332.681 262.802 333.196 263.472C333.711 264.142 333.969 265.078 333.969 266.281V266.377ZM332.308 266.233C332.308 265.431 332.166 264.83 331.884 264.429C331.601 264.028 331.191 263.827 330.653 263.827C329.933 263.827 329.427 264.142 329.136 264.771V267.819C329.432 268.462 329.942 268.783 330.667 268.783C331.187 268.783 331.588 268.59 331.87 268.202C332.153 267.815 332.299 267.229 332.308 266.445V266.233ZM338.624 270.137C337.571 270.137 336.717 269.806 336.061 269.146C335.409 268.48 335.083 267.596 335.083 266.493V266.288C335.083 265.55 335.224 264.891 335.507 264.312C335.794 263.729 336.195 263.276 336.71 262.952C337.225 262.629 337.799 262.467 338.433 262.467C339.44 262.467 340.217 262.788 340.764 263.431C341.315 264.073 341.591 264.982 341.591 266.158V266.828H336.758C336.808 267.439 337.011 267.922 337.366 268.277C337.726 268.633 338.177 268.811 338.72 268.811C339.481 268.811 340.101 268.503 340.579 267.888L341.475 268.742C341.178 269.184 340.782 269.528 340.285 269.774C339.793 270.016 339.239 270.137 338.624 270.137ZM338.426 263.8C337.97 263.8 337.601 263.959 337.318 264.278C337.04 264.597 336.863 265.042 336.785 265.611H339.95V265.488C339.914 264.932 339.766 264.513 339.506 264.23C339.246 263.943 338.886 263.8 338.426 263.8ZM270.921 283.696L272.951 278.604H274.578L271.338 286H270.005L269.355 280.941L266.963 286H265.623L264.946 278.604H266.478L266.758 283.621L269.096 278.604H270.319L270.921 283.696ZM276.123 286H274.503L275.788 278.604H277.408L276.123 286ZM276.021 276.71C276.021 276.459 276.103 276.245 276.267 276.067C276.431 275.89 276.652 275.796 276.93 275.787C277.194 275.778 277.413 275.86 277.586 276.033C277.764 276.202 277.853 276.409 277.853 276.655C277.853 276.915 277.766 277.129 277.593 277.298C277.424 277.466 277.208 277.555 276.943 277.564C276.684 277.574 276.465 277.496 276.287 277.332C276.109 277.163 276.021 276.956 276.021 276.71ZM281.571 276.806L281.257 278.604H282.521L282.31 279.834H281.038L280.341 283.977C280.327 284.09 280.325 284.193 280.334 284.284C280.361 284.58 280.544 284.735 280.881 284.749C281.049 284.749 281.241 284.729 281.455 284.688L281.346 285.986C281.008 286.082 280.669 286.13 280.327 286.13C279.762 286.121 279.338 285.929 279.056 285.556C278.778 285.177 278.668 284.678 278.728 284.059L279.418 279.834H278.235L278.454 278.604H279.63L279.944 276.806H281.571ZM285.208 279.417C285.823 278.77 286.523 278.455 287.307 278.474C288.008 278.483 288.528 278.731 288.865 279.219C289.207 279.706 289.335 280.381 289.248 281.242L288.455 286H286.835L287.642 281.222C287.664 281.026 287.669 280.843 287.655 280.675C287.596 280.119 287.268 279.834 286.671 279.82C286.069 279.811 285.532 280.107 285.058 280.709L284.135 286H282.515L284.333 275.5H285.96L285.208 279.417ZM300.083 283.683H296.228L295.421 286H293.623L297.383 276.047H298.935L302.701 286H300.896L300.083 283.683ZM296.713 282.288H299.598L298.155 278.159L296.713 282.288ZM304.889 278.604L304.937 279.458C305.483 278.797 306.201 278.467 307.09 278.467C308.63 278.467 309.414 279.349 309.441 281.112V286H307.78V281.208C307.78 280.739 307.678 280.392 307.473 280.169C307.272 279.941 306.942 279.827 306.481 279.827C305.812 279.827 305.312 280.13 304.984 280.736V286H303.323V278.604H304.889ZM312.907 286H311.246V278.604H312.907V286ZM311.144 276.683C311.144 276.427 311.223 276.215 311.383 276.047C311.547 275.878 311.779 275.794 312.08 275.794C312.381 275.794 312.613 275.878 312.777 276.047C312.941 276.215 313.023 276.427 313.023 276.683C313.023 276.933 312.941 277.143 312.777 277.312C312.613 277.476 312.381 277.558 312.08 277.558C311.779 277.558 311.547 277.476 311.383 277.312C311.223 277.143 311.144 276.933 311.144 276.683ZM316.284 278.604L316.332 279.376C316.852 278.77 317.562 278.467 318.465 278.467C319.454 278.467 320.131 278.845 320.495 279.602C321.033 278.845 321.789 278.467 322.765 278.467C323.58 278.467 324.187 278.692 324.583 279.144C324.984 279.595 325.189 280.26 325.198 281.14V286H323.537V281.188C323.537 280.718 323.435 280.374 323.229 280.155C323.024 279.937 322.685 279.827 322.211 279.827C321.833 279.827 321.523 279.93 321.281 280.135C321.044 280.335 320.878 280.6 320.782 280.928L320.789 286H319.128V281.133C319.105 280.262 318.661 279.827 317.795 279.827C317.13 279.827 316.658 280.098 316.38 280.641V286H314.719V278.604H316.284ZM331.323 286C331.25 285.859 331.187 285.629 331.132 285.31C330.603 285.861 329.956 286.137 329.19 286.137C328.448 286.137 327.841 285.925 327.372 285.501C326.903 285.077 326.668 284.553 326.668 283.929C326.668 283.14 326.96 282.536 327.543 282.117C328.131 281.693 328.969 281.481 330.059 281.481H331.077V280.996C331.077 280.613 330.97 280.308 330.756 280.08C330.542 279.848 330.216 279.731 329.778 279.731C329.4 279.731 329.09 279.827 328.849 280.019C328.607 280.205 328.486 280.445 328.486 280.736H326.825C326.825 280.331 326.96 279.952 327.229 279.602C327.497 279.246 327.862 278.968 328.322 278.768C328.787 278.567 329.304 278.467 329.874 278.467C330.74 278.467 331.43 278.686 331.945 279.123C332.46 279.556 332.725 280.167 332.738 280.955V284.291C332.738 284.956 332.832 285.487 333.019 285.884V286H331.323ZM329.498 284.804C329.826 284.804 330.134 284.724 330.421 284.564C330.713 284.405 330.931 284.191 331.077 283.922V282.527H330.182C329.566 282.527 329.104 282.634 328.794 282.849C328.484 283.063 328.329 283.366 328.329 283.758C328.329 284.077 328.434 284.332 328.644 284.523C328.858 284.71 329.143 284.804 329.498 284.804ZM336.56 276.806V278.604H337.865V279.834H336.56V283.963C336.56 284.245 336.614 284.451 336.724 284.578C336.838 284.701 337.038 284.763 337.325 284.763C337.517 284.763 337.71 284.74 337.906 284.694V285.979C337.528 286.084 337.163 286.137 336.812 286.137C335.536 286.137 334.898 285.433 334.898 284.024V279.834H333.682V278.604H334.898V276.806H336.56ZM340.907 286H339.246V278.604H340.907V286ZM339.144 276.683C339.144 276.427 339.223 276.215 339.383 276.047C339.547 275.878 339.779 275.794 340.08 275.794C340.381 275.794 340.613 275.878 340.777 276.047C340.941 276.215 341.023 276.427 341.023 276.683C341.023 276.933 340.941 277.143 340.777 277.312C340.613 277.476 340.381 277.558 340.08 277.558C339.779 277.558 339.547 277.476 339.383 277.312C339.223 277.143 339.144 276.933 339.144 276.683ZM342.411 282.233C342.411 281.509 342.555 280.857 342.842 280.278C343.129 279.695 343.532 279.248 344.052 278.938C344.571 278.624 345.168 278.467 345.843 278.467C346.841 278.467 347.65 278.788 348.27 279.431C348.894 280.073 349.231 280.925 349.281 281.987L349.288 282.377C349.288 283.106 349.147 283.758 348.864 284.332C348.586 284.906 348.185 285.351 347.661 285.665C347.142 285.979 346.54 286.137 345.856 286.137C344.813 286.137 343.977 285.79 343.348 285.098C342.723 284.4 342.411 283.473 342.411 282.315V282.233ZM344.072 282.377C344.072 283.138 344.229 283.735 344.544 284.168C344.858 284.596 345.296 284.811 345.856 284.811C346.417 284.811 346.852 284.592 347.162 284.154C347.477 283.717 347.634 283.076 347.634 282.233C347.634 281.486 347.472 280.894 347.148 280.456C346.829 280.019 346.394 279.8 345.843 279.8C345.3 279.8 344.87 280.016 344.551 280.449C344.232 280.878 344.072 281.52 344.072 282.377ZM352.234 278.604L352.282 279.458C352.829 278.797 353.547 278.467 354.436 278.467C355.976 278.467 356.76 279.349 356.787 281.112V286H355.126V281.208C355.126 280.739 355.023 280.392 354.818 280.169C354.618 279.941 354.287 279.827 353.827 279.827C353.157 279.827 352.658 280.13 352.33 280.736V286H350.669V278.604H352.234ZM362.632 283.99C362.632 283.694 362.509 283.468 362.263 283.313C362.021 283.159 361.618 283.022 361.053 282.903C360.488 282.785 360.016 282.634 359.638 282.452C358.808 282.051 358.394 281.47 358.394 280.709C358.394 280.071 358.662 279.538 359.2 279.109C359.738 278.681 360.422 278.467 361.251 278.467C362.135 278.467 362.848 278.686 363.391 279.123C363.938 279.561 364.211 280.128 364.211 280.825H362.55C362.55 280.506 362.431 280.242 362.194 280.032C361.957 279.818 361.643 279.711 361.251 279.711C360.886 279.711 360.588 279.795 360.355 279.964C360.128 280.132 360.014 280.358 360.014 280.641C360.014 280.896 360.121 281.094 360.335 281.235C360.549 281.377 360.982 281.52 361.634 281.666C362.285 281.807 362.796 281.978 363.165 282.179C363.539 282.375 363.814 282.612 363.992 282.89C364.174 283.168 364.266 283.505 364.266 283.901C364.266 284.567 363.99 285.107 363.438 285.521C362.887 285.932 362.165 286.137 361.271 286.137C360.665 286.137 360.125 286.027 359.651 285.809C359.177 285.59 358.808 285.289 358.544 284.906C358.28 284.523 358.147 284.111 358.147 283.669H359.761C359.784 284.061 359.932 284.364 360.205 284.578C360.479 284.788 360.841 284.893 361.292 284.893C361.729 284.893 362.062 284.811 362.29 284.646C362.518 284.478 362.632 284.259 362.632 283.99Z" fill="black"/>
<path d="M245.077 428.539L246.608 421.047H248.324L246.027 431H244.373L242.479 423.733L240.545 431H238.884L236.587 421.047H238.303L239.848 428.525L241.748 421.047H243.197L245.077 428.539ZM251.065 424.41C251.608 423.781 252.294 423.467 253.123 423.467C254.7 423.467 255.5 424.367 255.522 426.167V431H253.861V426.229C253.861 425.718 253.75 425.358 253.526 425.148C253.308 424.934 252.984 424.827 252.556 424.827C251.89 424.827 251.394 425.123 251.065 425.716V431H249.404V420.5H251.065V424.41ZM261.627 431C261.554 430.859 261.49 430.629 261.436 430.31C260.907 430.861 260.26 431.137 259.494 431.137C258.751 431.137 258.145 430.925 257.676 430.501C257.206 430.077 256.972 429.553 256.972 428.929C256.972 428.14 257.263 427.536 257.847 427.117C258.435 426.693 259.273 426.481 260.362 426.481H261.381V425.996C261.381 425.613 261.274 425.308 261.06 425.08C260.845 424.848 260.52 424.731 260.082 424.731C259.704 424.731 259.394 424.827 259.152 425.019C258.911 425.205 258.79 425.445 258.79 425.736H257.129C257.129 425.331 257.263 424.952 257.532 424.602C257.801 424.246 258.166 423.968 258.626 423.768C259.091 423.567 259.608 423.467 260.178 423.467C261.044 423.467 261.734 423.686 262.249 424.123C262.764 424.556 263.028 425.167 263.042 425.955V429.291C263.042 429.956 263.135 430.487 263.322 430.884V431H261.627ZM259.802 429.804C260.13 429.804 260.438 429.724 260.725 429.564C261.016 429.405 261.235 429.191 261.381 428.922V427.527H260.485C259.87 427.527 259.408 427.634 259.098 427.849C258.788 428.063 258.633 428.366 258.633 428.758C258.633 429.077 258.738 429.332 258.947 429.523C259.161 429.71 259.446 429.804 259.802 429.804ZM266.863 421.806V423.604H268.169V424.834H266.863V428.963C266.863 429.245 266.918 429.451 267.027 429.578C267.141 429.701 267.342 429.763 267.629 429.763C267.82 429.763 268.014 429.74 268.21 429.694V430.979C267.832 431.084 267.467 431.137 267.116 431.137C265.84 431.137 265.202 430.433 265.202 429.024V424.834H263.985V423.604H265.202V421.806H266.863ZM272.701 431.137C271.648 431.137 270.794 430.806 270.138 430.146C269.486 429.48 269.16 428.596 269.16 427.493V427.288C269.16 426.55 269.301 425.891 269.584 425.312C269.871 424.729 270.272 424.276 270.787 423.952C271.302 423.629 271.876 423.467 272.51 423.467C273.517 423.467 274.294 423.788 274.841 424.431C275.392 425.073 275.668 425.982 275.668 427.158V427.828H270.835C270.885 428.439 271.088 428.922 271.443 429.277C271.803 429.633 272.255 429.811 272.797 429.811C273.558 429.811 274.178 429.503 274.656 428.888L275.552 429.742C275.256 430.184 274.859 430.528 274.362 430.774C273.87 431.016 273.316 431.137 272.701 431.137ZM272.503 424.8C272.047 424.8 271.678 424.959 271.396 425.278C271.118 425.597 270.94 426.042 270.862 426.611H274.027V426.488C273.991 425.932 273.843 425.513 273.583 425.23C273.323 424.943 272.963 424.8 272.503 424.8ZM279.476 428.895L281.041 423.604H282.757L280.193 431H278.751L276.167 423.604H277.89L279.476 428.895ZM286.961 431.137C285.908 431.137 285.054 430.806 284.397 430.146C283.746 429.48 283.42 428.596 283.42 427.493V427.288C283.42 426.55 283.561 425.891 283.844 425.312C284.131 424.729 284.532 424.276 285.047 423.952C285.562 423.629 286.136 423.467 286.77 423.467C287.777 423.467 288.554 423.788 289.101 424.431C289.652 425.073 289.928 425.982 289.928 427.158V427.828H285.095C285.145 428.439 285.348 428.922 285.703 429.277C286.063 429.633 286.514 429.811 287.057 429.811C287.818 429.811 288.438 429.503 288.916 428.888L289.812 429.742C289.515 430.184 289.119 430.528 288.622 430.774C288.13 431.016 287.576 431.137 286.961 431.137ZM286.763 424.8C286.307 424.8 285.938 424.959 285.655 425.278C285.377 425.597 285.2 426.042 285.122 426.611H288.287V426.488C288.251 425.932 288.103 425.513 287.843 425.23C287.583 424.943 287.223 424.8 286.763 424.8ZM295.096 425.121C294.877 425.085 294.651 425.066 294.419 425.066C293.658 425.066 293.145 425.358 292.881 425.941V431H291.22V423.604H292.806L292.847 424.431C293.248 423.788 293.804 423.467 294.515 423.467C294.752 423.467 294.948 423.499 295.103 423.562L295.096 425.121ZM307.072 421.047V427.698C307.072 428.756 306.733 429.594 306.054 430.214C305.379 430.829 304.479 431.137 303.354 431.137C302.214 431.137 301.31 430.834 300.64 430.228C299.97 429.617 299.635 428.771 299.635 427.691V421.047H301.357V427.705C301.357 428.37 301.526 428.879 301.863 429.229C302.201 429.58 302.697 429.756 303.354 429.756C304.684 429.756 305.35 429.054 305.35 427.65V421.047H307.072ZM310.306 423.604L310.354 424.458C310.9 423.797 311.618 423.467 312.507 423.467C314.047 423.467 314.831 424.349 314.858 426.112V431H313.197V426.208C313.197 425.739 313.095 425.392 312.89 425.169C312.689 424.941 312.359 424.827 311.898 424.827C311.229 424.827 310.729 425.13 310.401 425.736V431H308.74V423.604H310.306ZM318.324 431H316.663V423.604H318.324V431ZM316.561 421.683C316.561 421.427 316.64 421.215 316.8 421.047C316.964 420.878 317.196 420.794 317.497 420.794C317.798 420.794 318.03 420.878 318.194 421.047C318.358 421.215 318.44 421.427 318.44 421.683C318.44 421.933 318.358 422.143 318.194 422.312C318.03 422.476 317.798 422.558 317.497 422.558C317.196 422.558 316.964 422.476 316.8 422.312C316.64 422.143 316.561 421.933 316.561 421.683ZM322.747 428.895L324.312 423.604H326.028L323.465 431H322.022L319.438 423.604H321.161L322.747 428.895ZM330.232 431.137C329.18 431.137 328.325 430.806 327.669 430.146C327.017 429.48 326.691 428.596 326.691 427.493V427.288C326.691 426.55 326.833 425.891 327.115 425.312C327.402 424.729 327.803 424.276 328.318 423.952C328.833 423.629 329.408 423.467 330.041 423.467C331.048 423.467 331.825 423.788 332.372 424.431C332.924 425.073 333.199 425.982 333.199 427.158V427.828H328.366C328.416 428.439 328.619 428.922 328.975 429.277C329.335 429.633 329.786 429.811 330.328 429.811C331.089 429.811 331.709 429.503 332.188 428.888L333.083 429.742C332.787 430.184 332.39 430.528 331.894 430.774C331.401 431.016 330.848 431.137 330.232 431.137ZM330.034 424.8C329.578 424.8 329.209 424.959 328.927 425.278C328.649 425.597 328.471 426.042 328.394 426.611H331.559V426.488C331.522 425.932 331.374 425.513 331.114 425.23C330.854 424.943 330.494 424.8 330.034 424.8ZM338.367 425.121C338.148 425.085 337.923 425.066 337.69 425.066C336.929 425.066 336.417 425.358 336.152 425.941V431H334.491V423.604H336.077L336.118 424.431C336.519 423.788 337.075 423.467 337.786 423.467C338.023 423.467 338.219 423.499 338.374 423.562L338.367 425.121ZM343.562 428.99C343.562 428.694 343.439 428.468 343.193 428.313C342.952 428.159 342.549 428.022 341.983 427.903C341.418 427.785 340.947 427.634 340.568 427.452C339.739 427.051 339.324 426.47 339.324 425.709C339.324 425.071 339.593 424.538 340.131 424.109C340.669 423.681 341.352 423.467 342.182 423.467C343.066 423.467 343.779 423.686 344.321 424.123C344.868 424.561 345.142 425.128 345.142 425.825H343.48C343.48 425.506 343.362 425.242 343.125 425.032C342.888 424.818 342.574 424.711 342.182 424.711C341.817 424.711 341.519 424.795 341.286 424.964C341.058 425.132 340.944 425.358 340.944 425.641C340.944 425.896 341.051 426.094 341.266 426.235C341.48 426.377 341.913 426.52 342.564 426.666C343.216 426.807 343.727 426.978 344.096 427.179C344.469 427.375 344.745 427.612 344.923 427.89C345.105 428.168 345.196 428.505 345.196 428.901C345.196 429.567 344.921 430.107 344.369 430.521C343.818 430.932 343.095 431.137 342.202 431.137C341.596 431.137 341.056 431.027 340.582 430.809C340.108 430.59 339.739 430.289 339.475 429.906C339.21 429.523 339.078 429.111 339.078 428.669H340.691C340.714 429.061 340.862 429.364 341.136 429.578C341.409 429.788 341.771 429.893 342.223 429.893C342.66 429.893 342.993 429.811 343.221 429.646C343.449 429.478 343.562 429.259 343.562 428.99ZM348.416 431H346.755V423.604H348.416V431ZM346.652 421.683C346.652 421.427 346.732 421.215 346.892 421.047C347.056 420.878 347.288 420.794 347.589 420.794C347.89 420.794 348.122 420.878 348.286 421.047C348.45 421.215 348.532 421.427 348.532 421.683C348.532 421.933 348.45 422.143 348.286 422.312C348.122 422.476 347.89 422.558 347.589 422.558C347.288 422.558 347.056 422.476 346.892 422.312C346.732 422.143 346.652 421.933 346.652 421.683ZM352.312 421.806V423.604H353.618V424.834H352.312V428.963C352.312 429.245 352.367 429.451 352.477 429.578C352.59 429.701 352.791 429.763 353.078 429.763C353.27 429.763 353.463 429.74 353.659 429.694V430.979C353.281 431.084 352.916 431.137 352.565 431.137C351.289 431.137 350.651 430.433 350.651 429.024V424.834H349.435V423.604H350.651V421.806H352.312ZM356.66 431H354.999V423.604H356.66V431ZM354.896 421.683C354.896 421.427 354.976 421.215 355.136 421.047C355.3 420.878 355.532 420.794 355.833 420.794C356.134 420.794 356.366 420.878 356.53 421.047C356.694 421.215 356.776 421.427 356.776 421.683C356.776 421.933 356.694 422.143 356.53 422.312C356.366 422.476 356.134 422.558 355.833 422.558C355.532 422.558 355.3 422.476 355.136 422.312C354.976 422.143 354.896 421.933 354.896 421.683ZM361.732 431.137C360.68 431.137 359.825 430.806 359.169 430.146C358.517 429.48 358.191 428.596 358.191 427.493V427.288C358.191 426.55 358.333 425.891 358.615 425.312C358.902 424.729 359.303 424.276 359.818 423.952C360.333 423.629 360.908 423.467 361.541 423.467C362.548 423.467 363.325 423.788 363.872 424.431C364.424 425.073 364.699 425.982 364.699 427.158V427.828H359.866C359.916 428.439 360.119 428.922 360.475 429.277C360.835 429.633 361.286 429.811 361.828 429.811C362.589 429.811 363.209 429.503 363.688 428.888L364.583 429.742C364.287 430.184 363.89 430.528 363.394 430.774C362.901 431.016 362.348 431.137 361.732 431.137ZM361.534 424.8C361.078 424.8 360.709 424.959 360.427 425.278C360.149 425.597 359.971 426.042 359.894 426.611H363.059V426.488C363.022 425.932 362.874 425.513 362.614 425.23C362.354 424.943 361.994 424.8 361.534 424.8ZM370.141 428.99C370.141 428.694 370.018 428.468 369.771 428.313C369.53 428.159 369.127 428.022 368.562 427.903C367.996 427.785 367.525 427.634 367.146 427.452C366.317 427.051 365.902 426.47 365.902 425.709C365.902 425.071 366.171 424.538 366.709 424.109C367.247 423.681 367.93 423.467 368.76 423.467C369.644 423.467 370.357 423.686 370.899 424.123C371.446 424.561 371.72 425.128 371.72 425.825H370.059C370.059 425.506 369.94 425.242 369.703 425.032C369.466 424.818 369.152 424.711 368.76 424.711C368.395 424.711 368.097 424.795 367.864 424.964C367.636 425.132 367.522 425.358 367.522 425.641C367.522 425.896 367.63 426.094 367.844 426.235C368.058 426.377 368.491 426.52 369.143 426.666C369.794 426.807 370.305 426.978 370.674 427.179C371.048 427.375 371.323 427.612 371.501 427.89C371.683 428.168 371.774 428.505 371.774 428.901C371.774 429.567 371.499 430.107 370.947 430.521C370.396 430.932 369.674 431.137 368.78 431.137C368.174 431.137 367.634 431.027 367.16 430.809C366.686 430.59 366.317 430.289 366.053 429.906C365.788 429.523 365.656 429.111 365.656 428.669H367.27C367.292 429.061 367.44 429.364 367.714 429.578C367.987 429.788 368.35 429.893 368.801 429.893C369.238 429.893 369.571 429.811 369.799 429.646C370.027 429.478 370.141 429.259 370.141 428.99ZM381.133 431C381.06 430.859 380.996 430.629 380.941 430.31C380.413 430.861 379.766 431.137 379 431.137C378.257 431.137 377.651 430.925 377.182 430.501C376.712 430.077 376.478 429.553 376.478 428.929C376.478 428.14 376.769 427.536 377.353 427.117C377.94 426.693 378.779 426.481 379.868 426.481H380.887V425.996C380.887 425.613 380.78 425.308 380.565 425.08C380.351 424.848 380.025 424.731 379.588 424.731C379.21 424.731 378.9 424.827 378.658 425.019C378.417 425.205 378.296 425.445 378.296 425.736H376.635C376.635 425.331 376.769 424.952 377.038 424.602C377.307 424.246 377.672 423.968 378.132 423.768C378.597 423.567 379.114 423.467 379.684 423.467C380.549 423.467 381.24 423.686 381.755 424.123C382.27 424.556 382.534 425.167 382.548 425.955V429.291C382.548 429.956 382.641 430.487 382.828 430.884V431H381.133ZM379.308 429.804C379.636 429.804 379.943 429.724 380.23 429.564C380.522 429.405 380.741 429.191 380.887 428.922V427.527H379.991C379.376 427.527 378.913 427.634 378.604 427.849C378.294 428.063 378.139 428.366 378.139 428.758C378.139 429.077 378.243 429.332 378.453 429.523C378.667 429.71 378.952 429.804 379.308 429.804ZM388.16 425.121C387.941 425.085 387.716 425.066 387.483 425.066C386.722 425.066 386.21 425.358 385.945 425.941V431H384.284V423.604H385.87L385.911 424.431C386.312 423.788 386.868 423.467 387.579 423.467C387.816 423.467 388.012 423.499 388.167 423.562L388.16 425.121ZM392.33 431.137C391.277 431.137 390.423 430.806 389.767 430.146C389.115 429.48 388.789 428.596 388.789 427.493V427.288C388.789 426.55 388.93 425.891 389.213 425.312C389.5 424.729 389.901 424.276 390.416 423.952C390.931 423.629 391.505 423.467 392.139 423.467C393.146 423.467 393.923 423.788 394.47 424.431C395.021 425.073 395.297 425.982 395.297 427.158V427.828H390.464C390.514 428.439 390.717 428.922 391.072 429.277C391.432 429.633 391.883 429.811 392.426 429.811C393.187 429.811 393.807 429.503 394.285 428.888L395.181 429.742C394.884 430.184 394.488 430.528 393.991 430.774C393.499 431.016 392.945 431.137 392.33 431.137ZM392.132 424.8C391.676 424.8 391.307 424.959 391.024 425.278C390.746 425.597 390.569 426.042 390.491 426.611H393.656V426.488C393.62 425.932 393.472 425.513 393.212 425.23C392.952 424.943 392.592 424.8 392.132 424.8ZM229.765 443.377C229.765 444.521 229.505 445.435 228.985 446.118C228.466 446.797 227.769 447.137 226.894 447.137C226.082 447.137 225.433 446.87 224.945 446.337V449.844H223.284V439.604H224.815L224.884 440.355C225.371 439.763 226.035 439.467 226.873 439.467C227.775 439.467 228.482 439.804 228.992 440.479C229.507 441.148 229.765 442.08 229.765 443.274V443.377ZM228.11 443.233C228.11 442.495 227.962 441.91 227.666 441.477C227.374 441.044 226.955 440.827 226.408 440.827C225.729 440.827 225.242 441.107 224.945 441.668V444.949C225.246 445.523 225.738 445.811 226.422 445.811C226.951 445.811 227.363 445.599 227.659 445.175C227.96 444.746 228.11 444.099 228.11 443.233ZM235.657 446.275C235.17 446.85 234.477 447.137 233.579 447.137C232.777 447.137 232.169 446.902 231.754 446.433C231.344 445.963 231.139 445.284 231.139 444.396V439.604H232.8V444.375C232.8 445.314 233.189 445.783 233.969 445.783C234.775 445.783 235.32 445.494 235.603 444.915V439.604H237.264V447H235.698L235.657 446.275ZM243.102 444.99C243.102 444.694 242.979 444.468 242.732 444.313C242.491 444.159 242.088 444.022 241.522 443.903C240.957 443.785 240.486 443.634 240.107 443.452C239.278 443.051 238.863 442.47 238.863 441.709C238.863 441.071 239.132 440.538 239.67 440.109C240.208 439.681 240.891 439.467 241.721 439.467C242.605 439.467 243.318 439.686 243.86 440.123C244.407 440.561 244.681 441.128 244.681 441.825H243.02C243.02 441.506 242.901 441.242 242.664 441.032C242.427 440.818 242.113 440.711 241.721 440.711C241.356 440.711 241.058 440.795 240.825 440.964C240.597 441.132 240.483 441.358 240.483 441.641C240.483 441.896 240.59 442.094 240.805 442.235C241.019 442.377 241.452 442.52 242.104 442.666C242.755 442.807 243.266 442.978 243.635 443.179C244.008 443.375 244.284 443.612 244.462 443.89C244.644 444.168 244.735 444.505 244.735 444.901C244.735 445.567 244.46 446.107 243.908 446.521C243.357 446.932 242.634 447.137 241.741 447.137C241.135 447.137 240.595 447.027 240.121 446.809C239.647 446.59 239.278 446.289 239.014 445.906C238.749 445.523 238.617 445.111 238.617 444.669H240.23C240.253 445.061 240.401 445.364 240.675 445.578C240.948 445.788 241.311 445.893 241.762 445.893C242.199 445.893 242.532 445.811 242.76 445.646C242.988 445.478 243.102 445.259 243.102 444.99ZM247.825 440.41C248.368 439.781 249.053 439.467 249.883 439.467C251.46 439.467 252.259 440.367 252.282 442.167V447H250.621V442.229C250.621 441.718 250.509 441.358 250.286 441.148C250.067 440.934 249.744 440.827 249.315 440.827C248.65 440.827 248.153 441.123 247.825 441.716V447H246.164V436.5H247.825V440.41ZM255.734 447H254.073V439.604H255.734V447ZM253.971 437.683C253.971 437.427 254.05 437.215 254.21 437.047C254.374 436.878 254.606 436.794 254.907 436.794C255.208 436.794 255.44 436.878 255.604 437.047C255.769 437.215 255.851 437.427 255.851 437.683C255.851 437.933 255.769 438.143 255.604 438.312C255.44 438.476 255.208 438.558 254.907 438.558C254.606 438.558 254.374 438.476 254.21 438.312C254.05 438.143 253.971 437.933 253.971 437.683ZM259.091 439.604L259.139 440.458C259.686 439.797 260.403 439.467 261.292 439.467C262.832 439.467 263.616 440.349 263.644 442.112V447H261.982V442.208C261.982 441.739 261.88 441.392 261.675 441.169C261.474 440.941 261.144 440.827 260.684 440.827C260.014 440.827 259.515 441.13 259.187 441.736V447H257.525V439.604H259.091ZM265.052 443.247C265.052 442.099 265.321 441.183 265.858 440.499C266.401 439.811 267.118 439.467 268.012 439.467C268.855 439.467 269.518 439.761 270.001 440.349L270.076 439.604H271.573V446.774C271.573 447.745 271.27 448.511 270.664 449.071C270.062 449.632 269.249 449.912 268.224 449.912C267.681 449.912 267.15 449.798 266.631 449.57C266.116 449.347 265.724 449.053 265.455 448.688L266.241 447.69C266.752 448.297 267.381 448.6 268.128 448.6C268.679 448.6 269.115 448.449 269.434 448.148C269.753 447.852 269.912 447.415 269.912 446.836V446.337C269.434 446.87 268.796 447.137 267.998 447.137C267.132 447.137 266.424 446.793 265.872 446.104C265.325 445.416 265.052 444.464 265.052 443.247ZM266.706 443.391C266.706 444.133 266.856 444.719 267.157 445.147C267.463 445.571 267.884 445.783 268.422 445.783C269.092 445.783 269.589 445.496 269.912 444.922V441.668C269.598 441.107 269.105 440.827 268.436 440.827C267.889 440.827 267.463 441.044 267.157 441.477C266.856 441.91 266.706 442.548 266.706 443.391ZM281.191 447C281.118 446.859 281.055 446.629 281 446.31C280.471 446.861 279.824 447.137 279.059 447.137C278.316 447.137 277.71 446.925 277.24 446.501C276.771 446.077 276.536 445.553 276.536 444.929C276.536 444.14 276.828 443.536 277.411 443.117C277.999 442.693 278.838 442.481 279.927 442.481H280.945V441.996C280.945 441.613 280.838 441.308 280.624 441.08C280.41 440.848 280.084 440.731 279.646 440.731C279.268 440.731 278.958 440.827 278.717 441.019C278.475 441.205 278.354 441.445 278.354 441.736H276.693C276.693 441.331 276.828 440.952 277.097 440.602C277.366 440.246 277.73 439.968 278.19 439.768C278.655 439.567 279.173 439.467 279.742 439.467C280.608 439.467 281.299 439.686 281.813 440.123C282.328 440.556 282.593 441.167 282.606 441.955V445.291C282.606 445.956 282.7 446.487 282.887 446.884V447H281.191ZM279.366 445.804C279.694 445.804 280.002 445.724 280.289 445.564C280.581 445.405 280.799 445.191 280.945 444.922V443.527H280.05C279.435 443.527 278.972 443.634 278.662 443.849C278.352 444.063 278.197 444.366 278.197 444.758C278.197 445.077 278.302 445.332 278.512 445.523C278.726 445.71 279.011 445.804 279.366 445.804ZM288.492 444.99C288.492 444.694 288.369 444.468 288.123 444.313C287.882 444.159 287.478 444.022 286.913 443.903C286.348 443.785 285.876 443.634 285.498 443.452C284.669 443.051 284.254 442.47 284.254 441.709C284.254 441.071 284.523 440.538 285.061 440.109C285.598 439.681 286.282 439.467 287.111 439.467C287.995 439.467 288.709 439.686 289.251 440.123C289.798 440.561 290.071 441.128 290.071 441.825H288.41C288.41 441.506 288.292 441.242 288.055 441.032C287.818 440.818 287.503 440.711 287.111 440.711C286.747 440.711 286.448 440.795 286.216 440.964C285.988 441.132 285.874 441.358 285.874 441.641C285.874 441.896 285.981 442.094 286.195 442.235C286.41 442.377 286.842 442.52 287.494 442.666C288.146 442.807 288.656 442.978 289.025 443.179C289.399 443.375 289.675 443.612 289.853 443.89C290.035 444.168 290.126 444.505 290.126 444.901C290.126 445.567 289.85 446.107 289.299 446.521C288.747 446.932 288.025 447.137 287.132 447.137C286.526 447.137 285.986 447.027 285.512 446.809C285.038 446.59 284.669 446.289 284.404 445.906C284.14 445.523 284.008 445.111 284.008 444.669H285.621C285.644 445.061 285.792 445.364 286.065 445.578C286.339 445.788 286.701 445.893 287.152 445.893C287.59 445.893 287.923 445.811 288.15 445.646C288.378 445.478 288.492 445.259 288.492 444.99ZM296.203 436.322L297.051 436.849C296.636 437.455 296.422 438.086 296.408 438.742V439.781H294.952V438.838C294.957 438.4 295.075 437.945 295.308 437.471C295.545 436.992 295.843 436.609 296.203 436.322ZM298.5 436.322L299.348 436.849C298.933 437.455 298.719 438.086 298.705 438.742V439.781H297.249V438.838C297.254 438.4 297.372 437.945 297.604 437.471C297.841 436.992 298.14 436.609 298.5 436.322ZM304.126 443.165H302.226L301.556 447H299.867L301.597 437.047L304.734 437.054C305.814 437.054 306.642 437.313 307.216 437.833C307.79 438.353 308.038 439.075 307.961 440C307.911 440.643 307.697 441.201 307.318 441.675C306.94 442.144 306.409 442.513 305.726 442.782L307.195 446.897L307.188 447H305.397L304.126 443.165ZM302.458 441.777L304.092 441.791C304.68 441.791 305.17 441.638 305.562 441.333C305.958 441.023 306.19 440.604 306.259 440.075C306.327 439.56 306.236 439.166 305.985 438.893C305.735 438.615 305.354 438.466 304.844 438.448L303.039 438.441L302.458 441.777ZM311.604 447.137C310.962 447.123 310.404 446.961 309.93 446.651C309.46 446.341 309.112 445.918 308.884 445.38C308.66 444.842 308.576 444.243 308.631 443.582L308.651 443.302C308.733 442.55 308.952 441.875 309.308 441.278C309.668 440.677 310.114 440.221 310.647 439.911C311.181 439.601 311.759 439.453 312.384 439.467C313.309 439.485 314.002 439.829 314.462 440.499C314.927 441.169 315.102 442.042 314.988 443.117L314.893 443.828H310.237C310.196 444.416 310.315 444.89 310.593 445.25C310.871 445.61 311.254 445.795 311.741 445.804C312.438 445.826 313.081 445.523 313.669 444.895L314.489 445.756C314.179 446.198 313.771 446.542 313.266 446.788C312.76 447.03 312.206 447.146 311.604 447.137ZM312.295 440.793C311.438 440.766 310.796 441.372 310.367 442.611L313.437 442.618L313.464 442.475C313.496 442.265 313.498 442.06 313.471 441.859C313.421 441.536 313.293 441.281 313.088 441.094C312.883 440.907 312.618 440.807 312.295 440.793ZM318.406 439.597L318.263 440.383C318.873 439.754 319.603 439.449 320.45 439.467C320.915 439.476 321.3 439.583 321.605 439.788C321.915 439.993 322.125 440.264 322.234 440.602C322.918 439.827 323.702 439.449 324.586 439.467C325.306 439.485 325.839 439.733 326.186 440.212C326.536 440.686 326.669 441.351 326.582 442.208L325.782 447H324.162L324.969 442.194C324.992 441.994 324.994 441.809 324.976 441.641C324.903 441.107 324.565 440.834 323.964 440.82C323.294 440.802 322.765 441.169 322.378 441.921L322.357 442.071L321.51 447H319.883L320.689 442.215C320.712 442.019 320.715 441.837 320.696 441.668C320.623 441.117 320.286 440.834 319.685 440.82C319.078 440.811 318.573 441.082 318.167 441.634L317.23 447H315.61L316.889 439.604L318.406 439.597ZM327.895 443.274C327.972 442.55 328.184 441.891 328.53 441.299C328.881 440.706 329.33 440.248 329.877 439.925C330.424 439.601 331.03 439.449 331.695 439.467C332.329 439.476 332.876 439.645 333.336 439.973C333.796 440.301 334.131 440.75 334.341 441.319C334.555 441.889 334.63 442.522 334.566 443.22C334.493 444.004 334.279 444.696 333.924 445.298C333.573 445.899 333.122 446.362 332.57 446.686C332.023 447.005 331.415 447.155 330.745 447.137C330.116 447.128 329.572 446.961 329.111 446.638C328.656 446.31 328.321 445.863 328.106 445.298C327.892 444.728 327.815 444.102 327.874 443.418L327.895 443.274ZM329.487 444.211C329.51 444.689 329.635 445.075 329.863 445.366C330.096 445.653 330.417 445.804 330.827 445.817C331.383 445.831 331.848 445.617 332.222 445.175C332.6 444.733 332.837 444.129 332.933 443.363L332.974 442.693C332.974 442.11 332.857 441.652 332.625 441.319C332.393 440.987 332.055 440.811 331.613 440.793C330.921 440.775 330.374 441.114 329.973 441.812C329.731 442.235 329.578 442.723 329.515 443.274C329.478 443.657 329.469 443.969 329.487 444.211ZM338.941 437.806L338.627 439.604H339.892L339.68 440.834H338.408L337.711 444.977C337.697 445.09 337.695 445.193 337.704 445.284C337.731 445.58 337.914 445.735 338.251 445.749C338.42 445.749 338.611 445.729 338.825 445.688L338.716 446.986C338.379 447.082 338.039 447.13 337.697 447.13C337.132 447.121 336.708 446.929 336.426 446.556C336.148 446.177 336.038 445.678 336.098 445.059L336.788 440.834H335.605L335.824 439.604H337L337.314 437.806H338.941ZM343.255 447.137C342.612 447.123 342.054 446.961 341.58 446.651C341.111 446.341 340.762 445.918 340.534 445.38C340.311 444.842 340.227 444.243 340.281 443.582L340.302 443.302C340.384 442.55 340.603 441.875 340.958 441.278C341.318 440.677 341.765 440.221 342.298 439.911C342.831 439.601 343.41 439.453 344.034 439.467C344.959 439.485 345.652 439.829 346.112 440.499C346.577 441.169 346.753 442.042 346.639 443.117L346.543 443.828H341.888C341.847 444.416 341.965 444.89 342.243 445.25C342.521 445.61 342.904 445.795 343.392 445.804C344.089 445.826 344.731 445.523 345.319 444.895L346.14 445.756C345.83 446.198 345.422 446.542 344.916 446.788C344.41 447.03 343.856 447.146 343.255 447.137ZM343.945 440.793C343.089 440.766 342.446 441.372 342.018 442.611L345.087 442.618L345.114 442.475C345.146 442.265 345.148 442.06 345.121 441.859C345.071 441.536 344.943 441.281 344.738 441.094C344.533 440.907 344.269 440.807 343.945 440.793ZM352.805 445.619H357.193L356.947 447H350.877L352.606 437.047H354.295L352.805 445.619ZM361.493 447.137C360.851 447.123 360.292 446.961 359.818 446.651C359.349 446.341 359 445.918 358.772 445.38C358.549 444.842 358.465 444.243 358.52 443.582L358.54 443.302C358.622 442.55 358.841 441.875 359.196 441.278C359.556 440.677 360.003 440.221 360.536 439.911C361.069 439.601 361.648 439.453 362.272 439.467C363.198 439.485 363.89 439.829 364.351 440.499C364.815 441.169 364.991 442.042 364.877 443.117L364.781 443.828H360.126C360.085 444.416 360.203 444.89 360.481 445.25C360.759 445.61 361.142 445.795 361.63 445.804C362.327 445.826 362.97 445.523 363.558 444.895L364.378 445.756C364.068 446.198 363.66 446.542 363.154 446.788C362.648 447.03 362.095 447.146 361.493 447.137ZM362.184 440.793C361.327 440.766 360.684 441.372 360.256 442.611L363.325 442.618L363.353 442.475C363.384 442.265 363.387 442.06 363.359 441.859C363.309 441.536 363.182 441.281 362.977 441.094C362.771 440.907 362.507 440.807 362.184 440.793ZM369.895 447C369.84 446.818 369.817 446.588 369.826 446.31C369.215 446.879 368.557 447.155 367.851 447.137C367.208 447.128 366.675 446.923 366.251 446.521C365.832 446.116 365.636 445.603 365.663 444.983C365.7 444.204 366.037 443.591 366.675 443.145C367.313 442.698 368.17 442.475 369.245 442.475L370.298 442.488L370.394 441.982C370.421 441.805 370.421 441.638 370.394 441.483C370.302 440.991 369.977 440.738 369.416 440.725C369.07 440.715 368.764 440.804 368.5 440.991C368.24 441.174 368.081 441.42 368.021 441.729L366.401 441.743C366.433 441.287 366.595 440.889 366.887 440.547C367.178 440.201 367.566 439.932 368.049 439.74C368.532 439.549 369.042 439.458 369.58 439.467C370.387 439.485 371.016 439.729 371.467 440.198C371.918 440.663 372.105 441.267 372.027 442.01L371.46 445.476L371.405 446.091C371.392 446.36 371.426 446.622 371.508 446.877L371.501 447H369.895ZM368.227 445.811C368.568 445.82 368.885 445.742 369.177 445.578C369.468 445.41 369.717 445.193 369.922 444.929L370.175 443.527L369.402 443.521C368.792 443.521 368.304 443.637 367.939 443.869C367.575 444.097 367.368 444.411 367.317 444.812C367.281 445.118 367.347 445.359 367.516 445.537C367.689 445.71 367.926 445.801 368.227 445.811ZM377.763 441.121C377.553 441.076 377.341 441.053 377.127 441.053C376.416 441.035 375.851 441.328 375.432 441.935L374.543 447H372.923L374.201 439.604L375.739 439.597L375.575 440.438C376.081 439.768 376.664 439.439 377.325 439.453C377.476 439.453 377.683 439.487 377.947 439.556L377.763 441.121ZM380.545 439.597L380.381 440.465C381.014 439.781 381.746 439.449 382.575 439.467C383.268 439.48 383.781 439.729 384.113 440.212C384.446 440.69 384.569 441.36 384.482 442.222L383.683 447H382.062L382.869 442.201C382.892 442.005 382.894 441.823 382.876 441.654C382.817 441.112 382.493 440.834 381.905 440.82C381.29 440.811 380.75 441.114 380.285 441.729L379.362 447H377.742L379.021 439.604L380.545 439.597ZM387.114 447H385.494L386.779 439.604H388.399L387.114 447ZM387.012 437.71C387.012 437.459 387.094 437.245 387.258 437.067C387.422 436.89 387.643 436.796 387.921 436.787C388.185 436.778 388.404 436.86 388.577 437.033C388.755 437.202 388.844 437.409 388.844 437.655C388.844 437.915 388.757 438.129 388.584 438.298C388.415 438.466 388.199 438.555 387.935 438.564C387.675 438.574 387.456 438.496 387.278 438.332C387.101 438.163 387.012 437.956 387.012 437.71ZM391.715 439.597L391.551 440.465C392.184 439.781 392.916 439.449 393.745 439.467C394.438 439.48 394.951 439.729 395.283 440.212C395.616 440.69 395.739 441.36 395.652 442.222L394.853 447H393.232L394.039 442.201C394.062 442.005 394.064 441.823 394.046 441.654C393.987 441.112 393.663 440.834 393.075 440.82C392.46 440.811 391.92 441.114 391.455 441.729L390.532 447H388.912L390.19 439.604L391.715 439.597ZM396.931 443.295C397.017 442.557 397.215 441.889 397.525 441.292C397.84 440.695 398.234 440.239 398.708 439.925C399.182 439.606 399.724 439.451 400.335 439.46C401.146 439.478 401.759 439.777 402.174 440.355L402.427 439.597L403.903 439.604L402.68 446.795C402.543 447.761 402.135 448.529 401.456 449.099C400.782 449.673 399.959 449.946 398.988 449.919C398.469 449.91 397.977 449.791 397.512 449.563C397.047 449.336 396.673 449.035 396.391 448.661L397.252 447.684C397.685 448.281 398.25 448.588 398.947 448.606C399.476 448.625 399.929 448.479 400.308 448.169C400.69 447.864 400.946 447.426 401.073 446.856L401.189 446.337C400.62 446.888 399.973 447.155 399.248 447.137C398.555 447.128 397.999 446.866 397.58 446.351C397.165 445.836 396.938 445.143 396.896 444.272C396.883 443.999 396.894 443.673 396.931 443.295ZM398.537 443.438C398.51 443.671 398.501 443.922 398.51 444.19C398.519 444.674 398.628 445.056 398.838 445.339C399.048 445.621 399.346 445.77 399.733 445.783C400.349 445.806 400.886 445.521 401.347 444.929L401.928 441.661C401.691 441.119 401.269 440.839 400.663 440.82C400.116 440.807 399.656 441.019 399.282 441.456C398.909 441.894 398.665 442.507 398.551 443.295L398.537 443.438ZM406.063 440L405.25 439.46C405.733 438.826 406.038 438.216 406.166 437.628L406.371 436.5H407.793L407.643 437.43C407.474 438.46 406.948 439.316 406.063 440ZM408.278 440L407.465 439.46C407.948 438.826 408.253 438.216 408.381 437.628L408.586 436.5H410.008L409.857 437.43C409.689 438.46 409.162 439.316 408.278 440Z" fill="black"/>
<path d="M629 482.5H629.924L629.419 481.727L315.919 1.72659L315.5 1.08563L315.081 1.72659L1.58138 481.727L1.07624 482.5H2H629Z" stroke="black"/>
</svg>
